<?xml version="1.0" encoding="UTF-8" standalone="no"?>
<!-- Created with Inkscape (http://www.inkscape.org/) -->

<svg
   xmlns:dc="http://purl.org/dc/elements/1.1/"
   xmlns:cc="http://creativecommons.org/ns#"
   xmlns:rdf="http://www.w3.org/1999/02/22-rdf-syntax-ns#"
   xmlns:svg="http://www.w3.org/2000/svg"
   xmlns="http://www.w3.org/2000/svg"
   xmlns:sodipodi="http://sodipodi.sourceforge.net/DTD/sodipodi-0.dtd"
   xmlns:inkscape="http://www.inkscape.org/namespaces/inkscape"
   width="33.261829mm"
   height="33.261829mm"
   viewBox="0 0 33.26183 33.26183"
   version="1.1"
   id="svg8"
   inkscape:export-filename="/home/wei/Documents/wchen459.github.io/assets/favicon/safari-pinned-tab.png"
   inkscape:export-xdpi="432.21915"
   inkscape:export-ydpi="432.21915"
   inkscape:version="0.92.5 (2060ec1f9f, 2020-04-08)"
   sodipodi:docname="safari-pinned-tab.svg">
  <defs
     id="defs2" />
  <sodipodi:namedview
     id="base"
     pagecolor="#ffffff"
     bordercolor="#666666"
     borderopacity="1.0"
     inkscape:pageopacity="0.0"
     inkscape:pageshadow="2"
     inkscape:zoom="2.0000001"
     inkscape:cx="4.1609732"
     inkscape:cy="39.214278"
     inkscape:document-units="mm"
     inkscape:current-layer="layer1"
     showgrid="false"
     inkscape:window-width="1848"
     inkscape:window-height="1016"
     inkscape:window-x="72"
     inkscape:window-y="27"
     inkscape:window-maximized="1"
     showguides="false" />
  <metadata
     id="metadata5">
    <rdf:RDF>
      <cc:Work
         rdf:about="">
        <dc:format>image/svg+xml</dc:format>
        <dc:type
           rdf:resource="http://purl.org/dc/dcmitype/StillImage" />
        <dc:title></dc:title>
      </cc:Work>
    </rdf:RDF>
  </metadata>
  <g
     inkscape:label="Layer 1"
     inkscape:groupmode="layer"
     id="layer1"
     transform="translate(-28.679417,-83.018776)">
    <rect
       style="opacity:1;fill:#000000;fill-opacity:1;stroke:none;stroke-width:0.69187236;stroke-miterlimit:4;stroke-dasharray:none;stroke-dashoffset:0;stroke-opacity:1"
       id="rect830"
       width="33.261829"
       height="33.261829"
       x="28.679417"
       y="83.018776"
       ry="0" />
    <path
       inkscape:connector-curvature="0"
       style="opacity:1;fill:#ffffff;fill-opacity:1;stroke:none;stroke-width:0.13709347;stroke-miterlimit:4;stroke-dasharray:none;stroke-dashoffset:0;stroke-opacity:1"
       d="m 38.525959,83.646327 v 4.314729 a 4.1877104,4.1631411 0 0 1 0.227262,-0.05053 4.1877104,4.1631411 0 0 1 0.415383,-0.04995 4.1877104,4.1631411 0 0 1 0.296201,-0.01046 4.1877104,4.1631411 0 0 1 0.418304,0.02091 4.1877104,4.1631411 0 0 1 0.41363,0.06215 4.1877104,4.1631411 0 0 1 0.106912,0.0273 V 83.64633 Z"
       id="rect876" />
    <ellipse
       style="opacity:1;fill:#ffffff;fill-opacity:1;stroke:none;stroke-width:0.15066294;stroke-miterlimit:4;stroke-dasharray:none;stroke-dashoffset:0;stroke-opacity:1"
       id="path880"
       cx="39.464806"
       cy="83.656799"
       rx="0.93858218"
       ry="0.64018041" />
    <path
       inkscape:connector-curvature="0"
       style="opacity:1;fill:#ffffff;fill-opacity:1;stroke:none;stroke-width:0.11355586;stroke-miterlimit:4;stroke-dasharray:none;stroke-dashoffset:0;stroke-opacity:1"
       d="m 39.464805,88.452044 a 3.589466,3.6214018 0 0 0 -3.589466,3.621401 3.589466,3.6214018 0 0 0 3.589466,3.621402 3.589466,3.6214018 0 0 0 3.589466,-3.621402 3.589466,3.6214018 0 0 0 -3.589466,-3.621401 z m 0,1.41461 a 2.1873308,2.2067916 0 0 1 0.218499,0.01061 2.1873308,2.2067916 0 0 1 0.216163,0.03301 2.1873308,2.2067916 0 0 1 0.211489,0.05482 2.1873308,2.2067916 0 0 1 0.205646,0.07545 2.1873308,2.2067916 0 0 1 0.196883,0.09608 2.1873308,2.2067916 0 0 1 0.186367,0.115526 2.1873308,2.2067916 0 0 1 0.174099,0.133209 2.1873308,2.2067916 0 0 1 0.160077,0.150303 2.1873308,2.2067916 0 0 1 0.144303,0.165627 2.1873308,2.2067916 0 0 1 0.126776,0.179773 2.1873308,2.2067916 0 0 1 0.10925,0.190972 2.1873308,2.2067916 0 0 1 0.08939,0.201582 2.1873308,2.2067916 0 0 1 0.06894,0.209245 2.1873308,2.2067916 0 0 1 0.04732,0.215138 2.1873308,2.2067916 0 0 1 0.02687,0.219265 2.1873308,2.2067916 0 0 1 0.0053,0.156197 2.1873308,2.2067916 0 0 1 -0.0111,0.220443 2.1873308,2.2067916 0 0 1 -0.03272,0.218086 2.1873308,2.2067916 0 0 1 -0.05375,0.21337 2.1873308,2.2067916 0 0 1 -0.07537,0.207476 2.1873308,2.2067916 0 0 1 -0.09464,0.198635 2.1873308,2.2067916 0 0 1 -0.114508,0.188025 2.1873308,2.2067916 0 0 1 -0.132034,0.175648 2.1873308,2.2067916 0 0 1 -0.149561,0.161501 2.1873308,2.2067916 0 0 1 -0.164167,0.145587 2.1873308,2.2067916 0 0 1 -0.177603,0.127904 2.1873308,2.2067916 0 0 1 -0.189873,0.109633 2.1873308,2.2067916 0 0 1 -0.19922,0.09018 2.1873308,2.2067916 0 0 1 -0.207983,0.06955 2.1873308,2.2067916 0 0 1 -0.213242,0.04833 2.1873308,2.2067916 0 0 1 -0.216747,0.02652 2.1873308,2.2067916 0 0 1 -0.154819,0.0059 2.1873308,2.2067916 0 0 1 -0.218499,-0.0112 2.1873308,2.2067916 0 0 1 -0.216162,-0.03301 2.1873308,2.2067916 0 0 1 -0.211489,-0.05423 2.1873308,2.2067916 0 0 1 -0.205647,-0.07604 2.1873308,2.2067916 0 0 1 -0.196883,-0.09608 2.1873308,2.2067916 0 0 1 -0.186367,-0.114937 2.1873308,2.2067916 0 0 1 -0.174098,-0.133799 2.1873308,2.2067916 0 0 1 -0.160077,-0.150302 2.1873308,2.2067916 0 0 1 -0.144303,-0.165627 2.1873308,2.2067916 0 0 1 -0.127361,-0.179184 2.1873308,2.2067916 0 0 1 -0.108665,-0.191562 2.1873308,2.2067916 0 0 1 -0.08939,-0.201582 2.1873308,2.2067916 0 0 1 -0.06894,-0.209244 2.1873308,2.2067916 0 0 1 -0.04791,-0.215139 2.1873308,2.2067916 0 0 1 -0.02629,-0.218675 2.1873308,2.2067916 0 0 1 -0.0053,-0.156197 2.1873308,2.2067916 0 0 1 0.0111,-0.220443 2.1873308,2.2067916 0 0 1 0.03272,-0.218086 2.1873308,2.2067916 0 0 1 0.05375,-0.21396 2.1873308,2.2067916 0 0 1 0.07536,-0.206886 2.1873308,2.2067916 0 0 1 0.09464,-0.198635 2.1873308,2.2067916 0 0 1 0.114508,-0.188025 2.1873308,2.2067916 0 0 1 0.132034,-0.175648 2.1873308,2.2067916 0 0 1 0.148977,-0.161501 2.1873308,2.2067916 0 0 1 0.164751,-0.145587 2.1873308,2.2067916 0 0 1 0.177604,-0.128494 2.1873308,2.2067916 0 0 1 0.189872,-0.109632 2.1873308,2.2067916 0 0 1 0.19922,-0.09018 2.1873308,2.2067916 0 0 1 0.2074,-0.06955 2.1873308,2.2067916 0 0 1 0.213825,-0.04833 2.1873308,2.2067916 0 0 1 0.216747,-0.02652 2.1873308,2.2067916 0 0 1 0.154819,-0.0053 z"
       id="path882" />
    <rect
       style="opacity:1;fill:#ffffff;fill-opacity:1;stroke:none;stroke-width:0.91733372;stroke-miterlimit:4;stroke-dasharray:none;stroke-dashoffset:0;stroke-opacity:1"
       id="rect918"
       width="6.4932499"
       height="33.261833"
       x="54.38966"
       y="83.018776" />
    <path
       style="fill:none;stroke:#000000;stroke-width:0.90844691;stroke-linecap:butt;stroke-linejoin:miter;stroke-miterlimit:4;stroke-dasharray:none;stroke-opacity:1"
       d="M 60.904809,86.074365 H 57.838807"
       id="path920-7-0"
       inkscape:connector-curvature="0" />
    <path
       style="fill:none;stroke:#000000;stroke-width:0.75073498;stroke-linecap:butt;stroke-linejoin:miter;stroke-miterlimit:4;stroke-dasharray:none;stroke-opacity:1"
       d="M 60.904809,89.092202 H 58.810954"
       id="path920-7-0-2"
       inkscape:connector-curvature="0" />
    <path
       style="fill:none;stroke:#000000;stroke-width:0.75073498;stroke-linecap:butt;stroke-linejoin:miter;stroke-miterlimit:4;stroke-dasharray:none;stroke-opacity:1"
       d="M 60.904809,92.110039 H 58.810954"
       id="path920-7-0-6"
       inkscape:connector-curvature="0" />
    <path
       style="fill:none;stroke:#000000;stroke-width:0.90844691;stroke-linecap:butt;stroke-linejoin:miter;stroke-miterlimit:4;stroke-dasharray:none;stroke-opacity:1"
       d="M 60.904809,95.127875 H 57.838807"
       id="path920-7-0-1"
       inkscape:connector-curvature="0" />
    <path
       style="fill:none;stroke:#000000;stroke-width:0.75073498;stroke-linecap:butt;stroke-linejoin:miter;stroke-miterlimit:4;stroke-dasharray:none;stroke-opacity:1"
       d="M 60.904809,98.145712 H 58.810954"
       id="path920-7-0-2-8"
       inkscape:connector-curvature="0" />
    <path
       style="fill:none;stroke:#000000;stroke-width:0.75073498;stroke-linecap:butt;stroke-linejoin:miter;stroke-miterlimit:4;stroke-dasharray:none;stroke-opacity:1"
       d="M 60.904809,101.16352 H 58.810954"
       id="path920-7-0-6-7"
       inkscape:connector-curvature="0" />
    <path
       style="fill:none;stroke:#000000;stroke-width:0.90844691;stroke-linecap:butt;stroke-linejoin:miter;stroke-miterlimit:4;stroke-dasharray:none;stroke-opacity:1"
       d="M 60.904809,104.18138 H 57.838807"
       id="path920-7-0-9"
       inkscape:connector-curvature="0" />
    <path
       style="fill:none;stroke:#000000;stroke-width:0.75073498;stroke-linecap:butt;stroke-linejoin:miter;stroke-miterlimit:4;stroke-dasharray:none;stroke-opacity:1"
       d="M 60.904809,107.19922 H 58.810954"
       id="path920-7-0-2-2"
       inkscape:connector-curvature="0" />
    <path
       style="fill:none;stroke:#000000;stroke-width:0.75073498;stroke-linecap:butt;stroke-linejoin:miter;stroke-miterlimit:4;stroke-dasharray:none;stroke-opacity:1"
       d="M 60.904809,110.21705 H 58.810954"
       id="path920-7-0-6-0"
       inkscape:connector-curvature="0" />
    <path
       style="fill:none;stroke:#000000;stroke-width:0.90844691;stroke-linecap:butt;stroke-linejoin:miter;stroke-miterlimit:4;stroke-dasharray:none;stroke-opacity:1"
       d="M 60.904809,113.2349 H 57.838807"
       id="path920-7-0-92"
       inkscape:connector-curvature="0" />
    <path
       style="fill:none;stroke:#ffffff;stroke-width:0.794891;stroke-linecap:butt;stroke-linejoin:miter;stroke-miterlimit:4;stroke-dasharray:none;stroke-opacity:1"
       d="M 30.410656,103.6165 H 48.518954"
       id="path1105"
       inkscape:connector-curvature="0"
       sodipodi:nodetypes="cc" />
    <path
       style="fill:none;stroke:#ffffff;stroke-width:0.5677793;stroke-linecap:butt;stroke-linejoin:miter;stroke-miterlimit:4;stroke-dasharray:none;stroke-opacity:1"
       d="m 39.464805,101.88123 v 3.39508"
       id="path1107"
       inkscape:connector-curvature="0" />
    <g
       id="g952">
      <path
         transform="matrix(0.26458333,0,0,0.26458333,28.679417,83.018776)"
         id="path948"
         d="M 44.484375 49.666016 L 81.527344 125.71484 L 81.527344 108.78711 L 51 46.117188 A 15.999999 15.999999 0 0 1 50.275391 46.755859 A 15.999999 15.999999 0 0 1 48.974609 47.685547 A 15.999999 15.999999 0 0 1 47.587891 48.482422 A 15.999999 15.999999 0 0 1 46.126953 49.134766 A 15.999999 15.999999 0 0 1 44.609375 49.638672 A 15.999999 15.999999 0 0 1 44.484375 49.666016 z "
         style="opacity:1;fill:#ffffff;fill-opacity:1;stroke:none;stroke-width:2.64566922;stroke-miterlimit:4;stroke-dasharray:none;stroke-dashoffset:0;stroke-opacity:1" />
      <path
         transform="matrix(0.26458333,0,0,0.26458333,28.679417,83.018776)"
         id="path945"
         d="M 30.269531 46.646484 L 0 108.78711 L 0 125.71484 L 36.953125 49.853516 A 15.999999 15.999999 0 0 1 35.601562 49.507812 A 15.999999 15.999999 0 0 1 34.099609 48.958984 A 15.999999 15.999999 0 0 1 32.658203 48.263672 A 15.999999 15.999999 0 0 1 31.294922 47.427734 A 15.999999 15.999999 0 0 1 30.269531 46.646484 z "
         style="opacity:1;fill:#ffffff;fill-opacity:1;stroke:none;stroke-width:2.64566922;stroke-miterlimit:4;stroke-dasharray:none;stroke-dashoffset:0;stroke-opacity:1" />
    </g>
  </g>
</svg>
